<svg class="img-fluid" id="outputsvg" xmlns="http://www.w3.org/2000/svg" style="transform: matrix(40, 0, 0, 40, -2951.46, 2016.25); transform-origin: 50% 50%; cursor: move; transition: transform 200ms ease-in-out 0s;" width="2000" height="1736" viewBox="0 0 20000 17360"><g id="l2KUNcG8BmOodBGJ9qc4u9P" fill="rgb(255,255,255)" style="transform: none;"><g><path id="pRwwZXzyq" d="M25 17293 c12 -33 9969 -17273 9975 -17273 6 0 9963 17240 9975 17273 7 16 -472 17 -9975 17 -9503 0 -9982 -1 -9975 -17z m18405 -844 c0 -6 -16 -38 -36 -72 -21 -34 -73 -125 -117 -202 -44 -77 -99 -171 -122 -210 -23 -38 -56 -95 -72 -125 -17 -30 -76 -133 -132 -228 -55 -95 -101 -175 -101 -177 0 -2 -26 -48 -58 -102 -33 -54 -72 -123 -89 -153 -32 -59 -119 -207 -163 -280 -15 -25 -41 -70 -57 -100 -17 -30 -61 -107 -98 -170 -38 -63 -87 -149 -110 -190 -23 -41 -58 -102 -77 -135 -19 -33 -79 -136 -133 -230 -53 -93 -117 -203 -141 -242 -24 -40 -44 -74 -44 -77 0 -2 -37 -66 -81 -142 -45 -77 -95 -164 -112 -194 -16 -30 -49 -86 -72 -125 -23 -38 -78 -133 -122 -210 -44 -77 -110 -191 -147 -253 -36 -62 -66 -115 -66 -118 0 -2 -11 -21 -23 -42 -28 -43 -100 -167 -367 -632 -106 -184 -223 -387 -260 -450 -37 -63 -94 -162 -127 -220 -33 -58 -86 -150 -118 -205 -32 -55 -106 -183 -165 -285 -398 -690 -660 -1144 -721 -1248 -27 -45 -49 -85 -49 -88 0 -2 -11 -21 -24 -42 -28 -44 -136 -231 -204 -351 -14 -25 -38 -68 -55 -95 -16 -28 -66 -114 -110 -191 -44 -77 -99 -171 -122 -210 -23 -38 -56 -95 -72 -125 -17 -30 -61 -107 -98 -170 -38 -63 -82 -140 -98 -170 -16 -30 -52 -93 -80 -140 -72 -122 -262 -452 -312 -540 -23 -41 -72 -127 -110 -190 -37 -63 -81 -140 -98 -170 -17 -30 -58 -102 -92 -160 -34 -58 -74 -125 -87 -150 -33 -59 -56 -98 -150 -257 -43 -73 -78 -135 -78 -137 0 -2 -37 -66 -82 -142 -45 -77 -98 -168 -118 -204 -20 -36 -105 -184 -190 -330 -85 -146 -170 -294 -190 -330 -21 -36 -53 -92 -72 -125 -19 -33 -69 -118 -110 -190 -41 -71 -101 -175 -133 -230 -47 -81 -208 -359 -295 -511 -75 -131 -384 -665 -499 -863 -77 -134 -141 -245 -141 -247 0 -3 -11 -22 -25 -44 -23 -36 -142 -243 -203 -350 -14 -25 -44 -76 -67 -115 -23 -38 -55 -95 -72 -125 -32 -59 -118 -206 -163 -280 -15 -25 -41 -70 -58 -100 -69 -126 -203 -355 -219 -372 -25 -28 -40 -22 -69 30 -57 99 -138 239 -165 282 -15 25 -41 70 -57 100 -16 30 -60 107 -97 170 -78 133 -99 170 -130 225 -12 22 -52 92 -90 155 -37 63 -81 140 -98 170 -16 30 -49 87 -72 125 -23 39 -82 140 -130 225 -49 85 -98 171 -110 190 -12 19 -33 55 -47 80 -58 103 -73 129 -123 215 -29 50 -95 164 -148 255 -52 91 -152 264 -222 385 -70 121 -138 238 -150 260 -12 22 -80 139 -150 260 -70 121 -179 310 -243 420 -63 110 -131 227 -150 260 -19 33 -46 80 -60 105 -41 74 -163 282 -188 322 -13 21 -24 40 -24 42 0 3 -38 69 -84 148 -45 79 -94 163 -108 188 -14 25 -55 96 -92 159 -37 62 -81 139 -98 170 -17 31 -68 120 -114 197 -46 78 -84 146 -84 152 0 6 -3 12 -7 14 -5 1 -19 23 -32 48 -14 25 -50 88 -82 140 -31 52 -70 120 -86 150 -17 30 -61 107 -98 170 -37 63 -87 149 -110 190 -86 153 -289 504 -336 580 -15 25 -40 70 -56 100 -17 30 -60 107 -98 170 -37 63 -81 140 -98 170 -16 30 -49 87 -72 125 -23 39 -78 133 -122 210 -44 77 -94 163 -110 191 -17 27 -41 70 -55 95 -72 126 -181 315 -188 324 -4 6 -19 30 -32 55 -47 85 -70 125 -123 215 -29 50 -95 164 -148 255 -52 91 -152 264 -222 385 -70 121 -138 238 -150 260 -28 50 -222 386 -300 520 -32 55 -92 159 -133 230 -41 72 -90 157 -110 190 -19 33 -46 80 -60 105 -41 74 -163 282 -188 322 -13 21 -24 40 -24 42 0 3 -38 69 -84 148 -45 79 -94 163 -108 188 -14 25 -55 96 -92 159 -37 62 -81 139 -98 170 -17 31 -68 120 -114 197 -46 78 -84 146 -84 152 0 6 -3 12 -7 14 -5 2 -19 23 -32 48 -14 25 -50 88 -81 140 -31 52 -70 120 -87 150 -17 30 -67 117 -112 194 -44 76 -81 140 -81 142 0 2 -34 61 -76 131 -42 70 -91 155 -109 188 -37 69 -163 285 -175 300 -4 6 -23 39 -42 75 -19 36 -65 117 -103 180 -37 63 -81 140 -98 170 -16 30 -49 87 -72 125 -23 39 -78 133 -122 210 -44 77 -94 163 -110 191 -29 48 -44 74 -108 189 -16 28 -56 97 -90 155 -35 58 -72 122 -84 143 -11 20 -31 54 -42 75 -12 20 -39 67 -60 104 -22 36 -39 71 -39 77 0 8 2422 11 8430 11 6038 0 8430 -3 8430 -11z"></path></g></g></svg>