<svg class="img-fluid" id="outputsvg" xmlns="http://www.w3.org/2000/svg" style="transform: none; transform-origin: 50% 50%; cursor: move;" width="2000" height="1736" viewBox="0 0 20000 17360"><g id="l3q3S7zmzURhjfYsq0FguFG" fill="rgb(255,255,255)" style="transform: none;"><g style="transform: none;"><path id="pYLVnXYsG" d="M5013 8723 c-2740 -4746 -4985 -8636 -4988 -8646 -7 -16 472 -17 9975 -17 9479 0 9982 1 9975 17 -12 32 -9969 17273 -9975 17273 -3 0 -2248 -3882 -4987 -8627z m5033 6730 c57 -100 138 -240 165 -283 15 -25 41 -70 57 -100 16 -30 60 -107 97 -170 78 -133 99 -170 130 -225 12 -22 52 -92 90 -155 37 -63 81 -140 98 -170 16 -30 49 -87 72 -125 23 -39 82 -140 130 -225 49 -85 98 -171 110 -190 12 -19 33 -55 47 -80 58 -103 73 -129 123 -215 29 -49 95 -164 148 -255 52 -91 152 -264 222 -385 70 -121 138 -238 150 -260 12 -22 80 -139 150 -260 70 -121 179 -310 243 -420 63 -110 131 -227 150 -260 19 -33 46 -80 60 -105 41 -74 163 -282 188 -322 13 -21 24 -40 24 -42 0 -3 38 -69 84 -148 45 -79 94 -163 108 -188 14 -25 55 -96 92 -159 37 -62 81 -139 98 -170 17 -31 68 -120 114 -197 46 -78 84 -146 84 -152 0 -6 3 -12 8 -14 4 -1 18 -23 31 -48 14 -25 50 -88 82 -140 31 -52 70 -120 86 -150 17 -30 61 -107 98 -170 37 -63 87 -149 110 -190 86 -153 289 -504 336 -580 15 -25 40 -70 56 -100 17 -30 60 -107 98 -170 37 -63 81 -140 98 -170 16 -30 49 -86 72 -125 23 -38 78 -133 122 -210 44 -77 94 -163 110 -191 17 -27 41 -70 55 -95 72 -126 181 -315 188 -324 4 -5 19 -30 32 -55 47 -85 70 -125 123 -215 29 -49 95 -164 148 -255 52 -91 152 -264 222 -385 70 -121 138 -238 150 -260 28 -50 222 -386 300 -520 32 -55 92 -158 133 -230 41 -71 90 -157 110 -190 19 -33 46 -80 60 -105 41 -74 163 -282 188 -322 13 -21 24 -40 24 -42 0 -3 38 -69 84 -148 45 -79 94 -163 108 -188 14 -25 55 -96 92 -159 37 -62 81 -139 98 -170 17 -31 68 -120 114 -197 46 -78 84 -146 84 -152 0 -6 3 -12 8 -14 4 -1 18 -23 31 -48 14 -25 50 -88 81 -140 31 -52 70 -120 87 -150 17 -30 67 -117 112 -194 44 -76 81 -140 81 -142 0 -2 34 -61 76 -131 42 -70 91 -155 109 -188 37 -69 163 -285 175 -300 4 -5 23 -39 42 -75 19 -36 65 -117 103 -180 37 -63 81 -140 98 -170 16 -30 49 -86 72 -125 23 -38 78 -133 122 -210 44 -77 94 -163 110 -191 29 -48 44 -74 108 -189 16 -27 56 -97 90 -155 35 -58 72 -122 84 -142 11 -21 31 -55 42 -75 12 -21 39 -68 60 -105 22 -36 39 -71 39 -77 0 -8 -2422 -11 -8430 -11 -6038 0 -8430 3 -8430 11 0 6 16 38 36 72 21 34 73 125 117 202 44 77 99 172 122 210 23 39 56 95 72 125 17 30 60 106 97 168 63 108 82 140 143 250 14 26 45 79 68 117 23 39 55 95 72 125 32 59 118 206 163 280 15 25 41 70 57 100 17 30 61 107 98 170 38 63 81 140 98 170 16 30 41 75 56 100 52 85 270 461 336 580 23 41 72 127 110 190 37 63 81 140 98 170 17 30 58 102 92 160 34 58 74 125 87 150 34 60 81 141 161 278 37 62 67 115 67 117 0 2 35 64 78 137 43 73 141 241 216 373 76 132 169 292 206 355 37 63 78 135 92 160 14 25 41 72 60 105 20 33 69 119 110 190 41 72 101 175 133 230 47 81 197 341 295 511 10 16 86 149 170 295 84 145 203 350 263 454 60 105 131 227 158 273 27 45 49 85 49 87 0 3 17 33 38 67 21 35 78 133 127 218 48 85 107 186 130 225 23 38 55 95 72 125 32 59 118 206 163 280 15 25 41 70 57 100 17 30 61 107 98 170 37 63 81 140 97 170 17 30 53 93 81 140 69 118 261 449 312 540 23 41 72 127 110 190 37 63 81 140 98 170 17 30 56 98 87 150 31 52 72 124 92 160 20 36 66 117 103 180 38 63 87 149 110 190 23 41 73 127 110 190 37 63 81 140 98 170 16 30 49 87 72 125 23 39 78 133 122 210 44 77 106 185 138 240 32 55 75 129 95 165 45 77 141 244 272 470 53 91 189 327 303 525 114 198 257 446 317 550 61 105 138 237 171 295 33 58 80 138 104 177 24 40 43 75 43 78 0 2 17 33 38 67 21 35 78 133 127 218 48 85 107 186 130 225 23 38 55 95 72 125 32 59 118 206 163 280 15 25 41 70 58 100 75 138 216 376 226 382 23 15 36 7 62 -39z"></path></g></g></svg>